<?xml version="1.0" encoding="utf-8"?>
<!-- Generator: Adobe Illustrator 25.2.1, SVG Export Plug-In . SVG Version: 6.00 Build 0)  -->
<svg version="1.1" xmlns="http://www.w3.org/2000/svg" xmlns:xlink="http://www.w3.org/1999/xlink" x="0px" y="0px"
	 viewBox="0 0 256 256" style="enable-background:new 0 0 256 256;" xml:space="preserve">
<style type="text/css">
	.st0{fill:url(#SVGID_1_);}
	.st1{fill:url(#SVGID_2_);}
	.st2{fill:url(#SVGID_3_);}
	.st3{fill:url(#SVGID_4_);}
	.st4{fill:url(#SVGID_5_);}
	.st5{fill:#FFFFFF;}
	.st6{fill:#343434;}
	.st7{fill:#8C8C8C;}
	.st8{fill:#3C3C3B;}
	.st9{fill:#141414;}
	.st10{fill:#393939;}
	.st11{fill:url(#SVGID_6_);}
	.st12{fill:url(#SVGID_7_);}
</style>
<g id="레이어_1">
	<linearGradient id="SVGID_1_" gradientUnits="userSpaceOnUse" x1="168.1373" y1="38.0476" x2="56.3386" y2="229.5303">
		<stop  offset="0" style="stop-color:#00C7FF"/>
		<stop  offset="0.1262" style="stop-color:#0FA2F6"/>
		<stop  offset="0.4052" style="stop-color:#3545E1"/>
		<stop  offset="0.6026" style="stop-color:#5100D1"/>
		<stop  offset="0.6722" style="stop-color:#4803BE"/>
		<stop  offset="0.8131" style="stop-color:#310B8D"/>
		<stop  offset="1" style="stop-color:#0F1644"/>
	</linearGradient>
	<path class="st0" d="M194.69,140.57c-0.88-0.04-1.68-0.06-2.71,1.07c-2.01,2.2-4.18,4.3-6.55,6.21l-1.2,0.96l-0.38,0.3
		c-0.7,0.59-0.97,1.26-0.86,2.13c0.03,0.23,0.08,0.43,0.13,0.65c0.06,0.22,0.11,0.43,0.17,0.65c0.21,0.75,0.41,1.5,0.58,2.24
		l0.03,0.13c0.23,1.06,0.43,2.13,0.6,3.19l0.07,0.42c0.13,0.93,0.25,1.93,0.33,2.97l0.03,0.25c0.01,0.13,0.03,0.26,0.04,0.39
		c0.09,1.28,0.14,2.45,0.14,3.57c0,27.5-22.38,49.88-49.88,49.88H74.11h-0.08c-1.7-0.02-3.07-1.39-3.09-3.09v-0.09v-52.64v-0.07
		c0.02-1.71,1.4-3.08,3.11-3.1h0.06h61.13c1.55,0,3.18-0.07,5-0.2l0.59-0.04c1.5-0.12,3.03-0.31,4.69-0.57l0.71-0.11
		c1.54-0.26,3.08-0.57,4.58-0.93l0.56-0.14c1.62-0.41,3.18-0.86,4.63-1.34l0.13-0.05c3.19-1.06,6.34-2.39,9.34-3.94
		c1.48-0.76,2.95-1.59,4.4-2.48l0.12-0.07c1.43-0.89,2.84-1.83,4.15-2.79l3.82-3c4.7-3.79,8.68-8.19,11.9-13.12l0.12-0.14
		c0.36-0.53,0.74-1.15,1.11-1.76l0.39-0.62c6.57-10.54,10.05-22.63,10.05-34.99c0-36.55-29.74-66.29-66.29-66.29H62.87h-0.38
		c-4.4,0.11-7.93,3.65-7.98,8.07v0.16v75.27c0,0.03-0.01,0.05-0.01,0.07v0.16c0,0.03,0.01,0.05,0.01,0.07
		c0.09,4.44,3.67,8.02,8.13,8.03h0.05h72.54c7.7,0,15.1,1.75,22.04,5.19c0.04,0.02,0.06,0.04,0.1,0.05
		c0.37,0.15,0.77,0.24,1.19,0.24c0.73,0,1.37-0.29,1.9-0.7c0.14-0.12,0.29-0.25,0.43-0.37c3.23-2.88,6.16-6.14,8.21-9
		c0.33-0.46,0.45-0.99,0.35-1.53c-0.1-0.53-0.35-0.93-0.74-1.17c0-0.01,0.01-0.01,0.01-0.02c-0.2-0.12-0.4-0.21-0.6-0.33
		c-0.86-0.49-1.73-0.97-2.61-1.42c-0.53-0.27-1.06-0.53-1.59-0.79c-0.59-0.28-1.18-0.56-1.77-0.82c-0.97-0.43-1.95-0.84-2.93-1.22
		c-0.13-0.05-0.27-0.1-0.4-0.15c-1.26-0.48-2.53-0.92-3.81-1.33c0,0-0.01,0-0.02-0.01c0,0,0,0,0,0c-6.37-1.99-13.02-3.06-19.76-3.06
		H74.17h-0.24c-1.67-0.07-3-1.41-3.02-3.09v-0.06V43.62v-0.13c0.04-1.7,1.42-3.07,3.13-3.08h0.01h61.17c1.21,0,2.4,0.09,3.56,0.18
		l0.17,0.01c25.88,1.93,46.15,23.75,46.15,49.69c0,6.66-1.31,13.14-3.88,19.27c-0.73,1.74-1.57,3.44-2.48,5.08l-0.08,0.13
		c-3.23,5.08-7.02,9.61-11.3,13.56c-0.16,0.15-0.33,0.3-0.5,0.44l-0.34,0.29c-1.82,1.47-3.69,2.79-5.58,3.93
		c-7.77,4.7-16.67,7.18-25.72,7.18H62.73c-0.02,0-0.03-0.01-0.05-0.01c-0.02,0-0.03,0.01-0.05,0.01c-4.45,0.03-8.02,3.6-8.11,8.03
		c0,0.02-0.01,0.04-0.01,0.07v0.16c0,0.02,0.01,0.04,0.01,0.07v75.24c0,0.03-0.01,0.05-0.01,0.08s0.01,0.05,0.01,0.08
		c0.05,4.48,3.68,8.11,8.17,8.11h72.53c36.55,0,66.29-29.74,66.29-66.29c0-7.87-1.4-15.56-4.14-22.93
		C197.03,141.82,196.3,140.81,194.69,140.57z"/>
</g>
<g id="레이어_2">
</g>
</svg>
