<svg xmlns="http://www.w3.org/2000/svg" xmlns:xlink="http://www.w3.org/1999/xlink" id="Layer_1" x="0px" y="0px" viewBox="0 0 47.1 36.5" style="enable-background:new 0 0 47.1 36.5;" xml:space="preserve">
<style type="text/css">
	.st0{fill:#3CC194;}
</style>
<path class="st0" d="M42,27.1h-0.2c-0.7,0.7-1.5,1.3-2.4,1.7h-0.1c-0.8,0.4-1.7,0.5-2.6,0.5c-1.3,0.1-2.6-0.2-3.8-0.8h-0.3  c-1.1-0.6-2.1-1.5-2.7-2.6v-0.2l-2.5,2.5c0,0-0.5,2.5-0.7,3.7h0.1c2.5,2.8,6,4.3,9.7,4.3h0.4c2.4,0,4.8-0.6,6.9-1.8l0,0  c1.2-0.6,2.2-1.3,3.2-2.2h0.1L42,27.1z"></path>
<path class="st0" d="M7.4,14.9L7.4,14.9l1,3.7l0.2-0.3c1-1.6,2.6-2.7,4.5-3h0.1c0.7-0.2,1.3-0.2,2-0.2c1,0.1,2,0.4,2.9,0.9l0,0  c1.2,0.7,2.3,1.6,3.2,2.7l0.2,0.2l2.3-3.3l0,0l0.7-3.5l0,0l-0.3-0.2c-1.5-1.4-3.3-2.5-5.3-3.1c-1.1-0.3-2.2-0.5-3.3-0.6h-0.1  c-2.5,0-5,0.7-7.2,1.9l0,0l-1,4.4L7.4,14.9z"></path>
<path class="st0" d="M29.3,24.5L29.3,24.5v-2.3c-0.1-1.6,0.5-3.2,1.5-4.5h0.1l0.4-0.5c1.4-1.4,3.2-2.2,5.2-2.2h1  c1.6,0.3,3,1,4.2,2.1h0.1l5-5h-0.2c-2.5-2.5-5.8-3.9-9.3-4.1h-1c-2.1,0-4.2,0.4-6.1,1.2c-1.3,0.6-2.4,1.4-3.4,2.3h-0.2l-1,1.1l0,0  l-0.8,3.5l-2.7,3.6v2.6c0,2.8-1.7,5.4-4.2,6.6l0,0c-3.8,1.6-8.2-0.2-9.8-4c-0.3-0.8-0.5-1.7-0.6-2.6v-2.5l-1.3-5.1L7.3,10V2.5L0,0  l0.2,16.5l0,0v5.9c0,0.2,0,0.4,0.1,0.6h0.1c0.2,4.1,2.2,7.8,5.4,10.3l0,0c2.6,2,5.9,3.1,9.2,3.1h0.6c3.4,0,6.6-1.2,9.1-3.5l0,0  l1-1.1l0,0l0.8-4.1L29.3,24.5L29.3,24.5z"></path>
</svg>