<svg width="69" height="78" viewBox="0 0 69 78" fill="none" xmlns="http://www.w3.org/2000/svg">
<path d="M63.376 13.23C61.5815 12.1487 59.5277 11.574 57.433 11.5669C57.0947 11.5669 56.7469 11.5669 56.4086 11.5669C54.8549 11.7222 53.3459 12.1752 51.9633 12.9012L45.8076 16.2467L42.9086 17.8035L21.9676 29.0198C20.1172 30.0052 18.5701 31.4764 17.4924 33.2753C16.4147 35.0742 15.8471 37.133 15.8506 39.2304V49.354L23.5815 45.2156V39.2304C23.5832 38.5343 23.7726 37.8517 24.1297 37.2542C24.4869 36.6569 24.9986 36.1671 25.6107 35.8364L42.9086 26.5734L45.8076 25.0264L53.5385 20.8878L55.6162 19.7761C55.8744 19.6311 56.1505 19.5204 56.4375 19.4473C56.7507 19.3507 57.0764 19.3019 57.404 19.3023C58.1056 19.3086 58.7927 19.5021 59.3946 19.8629C59.9672 20.2005 60.4411 20.6831 60.7684 21.2617C61.0958 21.8404 61.2652 22.4951 61.2596 23.1602V44.9352C61.2579 45.6312 61.0686 46.3139 60.7114 46.9112C60.3542 47.5087 59.8425 47.9983 59.2304 48.329L23.5815 67.4255V60.5702L15.8506 64.6699V73.4689C15.8501 74.1763 16.0331 74.8717 16.3815 75.4873C16.7299 76.1027 17.2319 76.6173 17.8385 76.9807C18.4451 77.344 19.1355 77.5438 19.8422 77.5604C20.5489 77.577 21.248 77.41 21.8711 77.0755L62.8833 55.1071C64.7285 54.1255 66.2724 52.6607 67.3499 50.8689C68.4274 49.0773 68.9978 47.0263 69.0002 44.9352V23.1602C69.009 21.1582 68.4945 19.1885 67.508 17.4467C66.5215 15.7049 65.0971 14.2512 63.376 13.23Z" fill="white"/>
<path d="M45.8074 28.3141V34.2993C45.8057 34.9954 45.6163 35.6782 45.2592 36.2755C44.902 36.8727 44.3903 37.3626 43.7782 37.6933L26.4803 46.9562L23.5813 48.513L15.8505 52.6514L12.9514 54.1984L8.1196 56.7898V28.5946C8.12134 27.8985 8.3108 27.2157 8.66796 26.6184C9.02513 26.0212 9.53679 25.5313 10.149 25.2006L40.106 9.14017C40.6556 8.83302 41.2739 8.67004 41.9034 8.66639C42.605 8.67277 43.2923 8.86632 43.8941 9.22717C44.4668 9.56473 44.9405 10.0472 45.2679 10.6259C45.5954 11.2047 45.7647 11.8594 45.7592 12.5244V12.9595L50.5426 10.3972C51.3431 9.9705 52.1809 9.61776 53.0455 9.34324C52.2541 6.50405 50.3988 4.07966 47.8659 2.57482C46.1532 1.53615 44.1989 0.963786 42.1969 0.914595C40.1947 0.865407 38.2146 1.34105 36.4531 2.29439L6.49614 18.3645C4.64465 19.3528 3.09758 20.8277 2.02143 22.6302C0.94528 24.4327 0.380796 26.4948 0.388755 28.5946V62.8717C0.388307 63.5791 0.571227 64.2745 0.919649 64.89C1.26807 65.5055 1.77007 66.0201 2.37665 66.3834C2.98321 66.747 3.67361 66.9466 4.38041 66.9634C5.08719 66.98 5.78621 66.8128 6.40918 66.4783L12.9514 62.9782L15.8505 61.4214L23.5813 57.2829L26.4803 55.7263L47.4213 44.5101C49.2725 43.5254 50.8202 42.0544 51.8979 40.2553C52.9757 38.456 53.5429 36.397 53.5383 34.2993V24.1757L45.8074 28.3141Z" fill="white"/>
</svg>
