<svg width="320" height="320" viewBox="0 0 320 320" fill="none" xmlns="http://www.w3.org/2000/svg">
<path d="M287.799 67.1287L252.852 32.1813L208.809 9.75203L159.99 2.01025L111.171 9.75203L67.1287 32.1813L32.1813 67.1287L9.75203 111.171L2.01025 159.99L9.75203 208.809L32.1813 252.852L67.1287 287.799L111.171 310.248L159.99 317.99L208.809 310.248L252.852 287.799L287.799 252.852L310.248 208.809L317.99 159.99L310.248 111.171L287.799 67.1287Z" fill="url(#paint0_linear_695_16565)"/>
<path fill-rule="evenodd" clip-rule="evenodd" d="M159.99 0L209.43 7.84027L254.033 30.5548L289.425 65.947L312.16 110.55L320 159.99L312.16 209.431L289.425 254.033L254.033 289.425L209.431 312.16L159.99 320L110.55 312.16L65.947 289.425L30.5548 254.033L7.84027 209.43L0 159.99L7.84027 110.55L30.5548 65.9474L65.9474 30.5548L110.55 7.84027L159.99 0ZM137.121 126.024L159.991 157.501L182.861 126.024H137.121ZM134.744 127.729L157.624 159.221L120.613 171.247L134.744 127.729ZM115.7 172.844L83.5963 137.953L72.5716 186.858L115.7 172.844ZM69.8672 185.55L80.7973 137.064L43.4877 148.788L69.8672 185.55ZM17.0207 157.106L39.4031 150.072L34.0267 195.221L17.0207 157.106ZM6.01597 160.564L13.3707 158.253L10.7063 190.141L6.01597 160.564ZM13.2429 206.137L12.6293 202.267L15.9948 161.987L32.8503 199.765L13.2429 206.137ZM33.7378 202.553L42.309 243.006L15.918 212.397L14.147 208.919L33.7378 202.553ZM37.459 201.344L69.3896 235.816L69.1267 191.054L37.459 201.344ZM73.4691 189.643L111.125 222.741L116.614 175.623L73.4691 189.643ZM109.367 225.092L72.06 192.3L72.3257 237.526L109.367 225.092ZM68.2517 238.893L37.3627 205.546L46.0102 246.359L68.2517 238.893ZM42.3853 247.575L21.4927 223.343L35.0817 250.027L42.3853 247.575ZM119.494 176.194L114.011 223.253L157.105 203.519L119.494 176.194ZM158.528 206.085L115.405 225.833L158.528 251.442V206.085ZM113.316 267.32L113.695 228.22L156.442 253.606L113.316 267.32ZM113.047 295.076L113.275 271.597L154.564 290.681L113.047 295.076ZM112.936 306.613L113.01 298.886L142.647 311.325L112.936 306.613ZM158.528 313.843L154.8 313.252L117.404 297.557L158.528 293.204V313.843ZM161.454 289.31L204.09 269.595L161.454 256.014V289.31ZM161.454 293.224V313.843L165.259 313.24L202.579 297.577L161.454 293.224ZM177.412 311.312L207.025 306.616L206.951 298.915L177.412 311.312ZM206.914 295.093L206.686 271.618L165.416 290.701L206.914 295.093ZM206.645 267.338L206.266 228.241L163.539 253.607L206.645 267.338ZM204.558 225.852L161.454 251.443V206.087L204.558 225.852ZM162.874 203.519L200.487 176.194L205.952 223.272L162.874 203.519ZM203.366 175.621L208.836 222.743L246.515 189.64L203.366 175.621ZM247.637 237.549L210.578 225.107L247.92 192.3L247.637 237.549ZM273.95 246.384L251.693 238.911L282.6 205.545L273.95 246.384ZM284.885 250.055L277.573 247.6L298.52 223.304L284.885 250.055ZM305.852 208.919L304.107 212.344L277.652 243.027L286.227 202.542L305.852 208.919ZM283.424 198.555L251.764 188.269L277.853 151.914L283.424 198.555ZM247.409 186.854L204.283 172.842L236.389 137.967L247.409 186.854ZM239.189 137.086L276.482 148.805L250.114 185.55L239.189 137.086ZM280.582 150.093L302.961 157.126L285.973 195.222L280.582 150.093ZM306.61 158.273L309.272 190.277L313.98 160.589L306.61 158.273ZM307.346 202.422L306.757 206.136L287.15 199.766L303.985 162.014L307.346 202.422ZM202.269 170.709L187.91 126.489L234.363 135.847L202.269 170.709ZM188.258 123.574L214.925 86.8706L234.751 132.941L188.258 123.574ZM237.173 56.2498L217.604 83.184L260.097 97.2609L237.173 56.2498ZM275.307 73.7435L239.472 53.0863L251.598 36.396L254.291 39.0882L275.307 73.7435ZM217.892 86.3616L237.537 132.013L260.834 100.587L217.892 86.3616ZM262.985 47.7829L284.23 69.0273L279.631 75.2309L262.985 47.7829ZM241.202 57.4612L277.355 78.3013L263.385 97.1455L241.202 57.4612ZM239.746 133.947L262.698 102.985L276.598 145.774L239.836 134.222L240.036 134.005L239.746 133.947ZM313.668 157.424L306.541 155.184L309.123 128.765L313.668 157.424ZM306.76 113.864L307.304 117.295L304.197 149.092L294.094 117.983L306.76 113.864ZM280.841 147.108L292.056 121.181L302.707 153.979L280.841 147.108ZM281.391 77.7692L299.003 97.623L285.83 71.7808L281.391 77.7692ZM304.286 107.988L305.861 111.079L293.191 115.2L283.072 84.0735L304.286 107.988ZM278.996 80.9998L289.662 113.808L265.354 99.4024L278.996 80.9998ZM282.511 201.335L250.854 191.05L250.574 235.814L282.511 201.335ZM209.189 227.975L209.457 228.098L209.423 227.806L245.926 240.061L209.562 266.486L209.189 227.975ZM209.939 305.332L209.867 297.892L235.71 292.197L209.939 305.332ZM249.206 285.317L246.065 286.918L214.912 293.784L241.385 274.553L249.206 285.317ZM209.606 270.953L237.716 273.602L209.828 293.86L209.606 270.953ZM271.888 248.778L250.158 241.482L243.983 269.048L271.888 248.778ZM254.052 281.131L251.578 283.604L243.752 272.832L270.227 253.601L254.052 281.131ZM262.28 272.903L275.702 250.058L282.756 252.427L262.28 272.903ZM158.528 289.29V256.013L115.876 269.576L158.528 289.29ZM110.537 227.786L110.503 228.078L110.772 227.955L110.399 266.467L74.0154 240.045L110.537 227.786ZM37.1999 252.402L44.2396 250.039L57.6619 272.864L37.1999 252.402ZM68.3811 283.583L65.9017 281.104L49.7188 253.585L76.1906 272.814L68.3811 283.583ZM69.7979 241.46L75.9616 269.031L48.054 248.759L69.7979 241.46ZM110.133 293.839L110.355 270.933L82.2296 273.582L110.133 293.839ZM73.8591 286.89L70.7477 285.304L78.5587 274.533L105.047 293.763L73.8591 286.89ZM84.214 292.168L110.094 297.871L110.022 305.323L84.214 292.168ZM36.5763 198.554L68.2196 188.272L42.1302 151.915L36.5763 198.554ZM117.711 170.708L132.07 126.488L85.6179 135.829L117.711 170.708ZM102.367 83.1682L59.8833 97.2594L82.8023 56.2401L102.367 83.1682ZM105.05 86.8609L85.2083 132.926L131.724 123.573L105.05 86.8609ZM82.4313 131.977L102.087 86.3438L59.158 100.583L82.4313 131.977ZM56.6016 97.1343L42.6258 78.2817L78.7799 57.4405L56.6016 97.1343ZM40.3498 75.2115L35.7591 69.0189L56.9657 47.8123L40.3498 75.2115ZM65.6603 39.1176L44.674 73.7238L80.5002 53.0716L68.3833 36.3947L65.6603 39.1176ZM80.2342 133.927L57.2884 102.974L43.3923 145.751L80.1451 134.202L79.9452 133.985L80.2342 133.927ZM34.1565 71.7701L38.5902 77.7511L21.0281 97.5492L34.1565 71.7701ZM14.1441 111.067L15.7559 107.902L36.9106 84.0537L26.7917 115.18L14.1441 111.067ZM40.9857 80.9824L30.32 113.791L54.6366 99.3967L40.9857 80.9824ZM13.2419 113.85L25.8876 117.963L15.785 149.072L12.6853 117.36L13.2419 113.85ZM10.8665 128.829L13.4406 155.164L6.3363 157.396L10.8665 128.829ZM17.2743 153.959L27.9253 121.161L39.1345 147.089L17.2743 153.959ZM104.742 81.4589L85.1792 54.5337L131.261 45.405L104.742 81.4589ZM134.085 121.845L107.424 85.1496L157.347 80.5202L134.085 121.845ZM134.648 45.7379L157.324 77.5838L107.85 82.1716L134.648 45.7379ZM118.557 23.1386L132.161 42.244L87.5653 51.0783L118.557 23.1386ZM111.863 13.7385L116.337 20.0212L85.1329 27.3513L111.863 13.7385ZM113.597 23.6704L74.178 32.9303L70.7509 34.6755L82.8771 51.3654L113.597 23.6704ZM162.634 80.52L185.897 121.846L212.56 85.148L162.634 80.52ZM237.106 51.365L249.231 34.6764L245.798 32.9282L206.403 23.6704L237.106 51.365ZM234.839 27.3473L208.117 13.7385L203.646 20.017L234.839 27.3473ZM201.432 23.1269L187.82 42.2436L232.42 51.0788L201.432 23.1269ZM185.333 45.7358L162.656 77.5835L212.151 82.1716L185.333 45.7358ZM234.803 54.5337L215.25 81.4459L188.723 45.4053L234.803 54.5337ZM183.244 123.098L159.991 81.788L136.737 123.098H183.244ZM160.135 76.0799L159.991 75.8231L159.846 76.0806L137.502 44.7011H182.478L160.135 76.0799ZM205.006 13.0636L200.689 19.1264L176.401 8.52739L205.006 13.0636ZM161.455 6.15722L164.909 6.70508L194.186 19.4811H161.455V6.15722ZM185.064 41.0701L163.867 22.4071H198.353L185.064 41.0701ZM121.628 22.4071L134.918 41.0717L156.116 22.4071H121.628ZM119.297 19.1336L114.975 13.0636L143.595 8.52493L119.297 19.1336ZM155.079 6.70385L125.813 19.4811H158.529V6.15673L155.079 6.70385ZM185.237 127.731L162.358 159.221L199.367 171.245L185.237 127.731ZM198.482 174.034L161.454 162.003V200.935L198.482 174.034ZM158.528 200.936V162.004L121.5 174.035L158.528 200.936ZM138.546 41.7752L159.992 22.8933L181.437 41.7752H138.546ZM54.1821 103.066L29.5849 117.626L40.9285 143.866L54.1821 103.066ZM73.147 243.03L79.3801 270.911L107.848 268.231L73.147 243.03ZM212.112 268.25L240.563 270.931L246.812 243.034L212.112 268.25ZM265.802 103.069L290.398 117.646L279.055 143.867L265.802 103.069Z" fill="white"/>
<defs>
<linearGradient id="paint0_linear_695_16565" x1="59.3436" y1="42.0102" x2="245.715" y2="271.014" gradientUnits="userSpaceOnUse">
<stop stop-color="#EF4136"/>
<stop offset="0.318022" stop-color="#DF5153"/>
<stop offset="0.636522" stop-color="#AC0B1B"/>
<stop offset="0.891735" stop-color="#8F0411"/>
<stop offset="1" stop-color="#AC0B1B"/>
</linearGradient>
</defs>
</svg>
