<svg width="45" height="45" viewBox="0 0 45 45" fill="none" xmlns="http://www.w3.org/2000/svg">
<g clip-path="url(#clip0_1733_1637)">
<g clip-path="url(#clip1_1733_1637)">
<path fill-rule="evenodd" clip-rule="evenodd" d="M9.98395 11.5801L4.10469 7.31978C3.21346 8.7996 2.45544 10.3557 1.83956 11.9697L8.72874 14.199C9.0878 13.2988 9.50715 12.4238 9.98395 11.5801ZM15.636 5.05437L10.3302 0.0473633C8.69982 1.41628 7.22313 2.95847 5.92618 4.64673L11.7874 8.89259C12.9059 7.4583 14.1987 6.16897 15.636 5.05437ZM7.74767 17.2977L0.86209 15.0684C0.433673 16.7358 0.153644 18.4379 0.0252856 20.1547H7.27877C7.37203 19.1931 7.52866 18.2387 7.74767 17.2977ZM8.42577 29.6204L1.5474 31.8498C2.13057 33.5184 2.86713 35.1293 3.74761 36.662L9.6449 32.3909C9.17424 31.4908 8.76688 30.5591 8.42577 29.6024V29.6204ZM11.3546 35.1469L5.50778 39.3783C6.86539 41.2414 8.4394 42.9367 10.1968 44.4286L15.4917 39.4288C13.9243 38.1894 12.5326 36.7429 11.3546 35.1288V35.1469ZM7.22827 23.928H0.0144653C0.0968989 25.5475 0.315283 27.1573 0.667314 28.7402L7.58896 26.5001C7.4204 25.6441 7.29998 24.7794 7.22827 23.91V23.928Z" fill="#BEFE00"/>
<path fill-rule="evenodd" clip-rule="evenodd" d="M28.9418 8.27933C25.5988 8.28068 22.3664 9.47662 19.8274 11.6515C17.2884 13.8263 15.61 16.8369 15.0949 20.1403H22.1969C22.7148 18.5064 23.8074 17.1158 25.2721 16.226C26.7369 15.3362 28.4745 15.0077 30.163 15.3012C31.8514 15.5948 33.3762 16.4906 34.4548 17.8226C35.5333 19.1546 36.0925 20.8325 36.0286 22.5453C35.9648 24.2581 35.2822 25.8897 34.1075 27.1377C32.9328 28.3857 31.3455 29.1655 29.6399 29.3325C27.9343 29.4995 26.2259 29.0425 24.8315 28.0461C23.437 27.0497 22.451 25.5815 22.0562 23.9136H15.0444C15.3588 26.5957 16.4419 29.1298 18.1632 31.2104C19.8846 33.291 22.1708 34.8295 24.7463 35.6404C27.3219 36.4514 30.077 36.5003 32.6797 35.7812C35.2824 35.0621 37.6216 33.6056 39.4157 31.5874C41.2097 29.5691 42.382 27.0751 42.7913 24.4058C43.2006 21.7365 42.8295 19.0057 41.7226 16.5425C40.6157 14.0793 38.8203 11.9888 36.5527 10.5227C34.2851 9.05659 31.642 8.27752 28.9418 8.27933Z" fill="#BEFE00"/>
</g>
</g>
<defs>
<clipPath id="clip0_1733_1637">
<rect width="45" height="45" fill="white"/>
</clipPath>
<clipPath id="clip1_1733_1637">
<rect width="45" height="44.3596" fill="white" transform="translate(0 0.0473633)"/>
</clipPath>
</defs>
</svg>
